<svg width="480" height="163" viewBox="0 0 480 163" fill="none" xmlns="http://www.w3.org/2000/svg">
<path fill-rule="evenodd" clip-rule="evenodd" d="M0.019165 92.6093H479.578V98.5008H0.019165V92.6093ZM0.019165 157.108H479.578V163H0.019165V157.108Z" fill="#A18313"/>
<path fill-rule="evenodd" clip-rule="evenodd" d="M409.248 1.73281H417.082V9.83853C417.082 13.1116 416.582 15.268 415.584 16.3077C414.547 17.4052 412.666 18.0213 409.958 18.1945C409.67 18.1175 409.229 18.0598 408.653 18.0598V14.3438C409.901 14.3438 410.842 14.055 411.437 13.4967C412.032 12.9383 412.32 11.8409 412.282 10.2043H409.267V1.73281H409.248ZM394.33 18.6759C395.328 22.1415 395.827 25.5686 395.827 28.9187C395.827 34.1749 394.982 39.6814 393.312 45.419C390.125 56.2779 384.902 64.7687 377.626 70.8913C372.845 74.9538 367.392 76.9754 361.229 76.9754C359.078 76.9754 357.139 76.7444 355.392 76.3208C353.645 75.878 351.168 74.9731 347.923 73.5868C342.125 75.955 336.73 77.1487 331.738 77.1487C329.299 77.1487 327.226 76.8599 325.555 76.2823C324.518 75.955 323.654 75.3581 322.944 74.5303C322.234 73.6831 321.888 72.8552 321.888 72.008C321.888 70.3907 322.771 69.12 324.538 68.1766C326.304 67.2139 328.704 66.7518 331.699 66.7518C336.422 66.7518 341.818 68.3306 347.923 71.5267C351.898 68.812 355.642 65.4041 359.136 61.2838C361.325 58.6846 363.091 56.4127 364.474 54.4489C365.837 52.4657 369.37 47.094 375.014 38.3337C379.43 31.595 385.21 24.7215 392.371 17.7517C390.739 13.9588 388.896 11.0322 386.803 8.99138C382.502 4.7171 376.704 2.57997 369.446 2.57997C359.885 2.57997 351.763 5.83381 345.139 12.3222C341.856 15.5376 339.264 19.0995 337.421 23.0079C335.712 26.5891 334.848 30.1702 334.848 33.7321C334.848 37.3325 335.962 40.2205 338.208 42.4347C340.32 44.5526 343.238 45.6115 346.963 45.6115C352.09 45.6115 357.005 43.6284 361.728 39.6429C368.141 34.1942 372.576 26.5121 375.034 16.5773L376.032 16.9046C375.053 23.2967 372.998 28.938 369.811 33.8284C366.566 38.7958 362.554 42.4924 357.792 44.8991C354.374 46.6319 350.842 47.4791 347.174 47.4791C342.336 47.4791 338.65 45.8618 336.096 42.5887C333.83 39.7199 332.698 36.1773 332.698 32.0185C332.698 26.6853 334.253 21.4676 337.344 16.3462C340.531 11.1285 344.736 7.10454 349.958 4.27427C355.181 1.42476 360.998 0 367.43 0C375.974 0 382.714 2.52221 387.667 7.56662C389.722 9.66525 391.68 12.6303 393.542 16.5002C397.67 12.8421 401.587 9.97331 405.293 7.89393L405.658 9.26093C402.221 11.4173 398.458 14.5556 394.33 18.6759ZM350.016 72.4894C353.722 74.357 357.485 75.2811 361.286 75.2811C367.046 75.2811 372.365 73.1825 377.184 68.9852C383.962 63.1322 388.877 55.142 391.93 44.9954C393.638 39.2964 394.502 34.0209 394.502 29.169C394.502 26.0885 394.08 22.9887 393.216 19.7926C390.797 22.6421 388.608 25.5494 386.65 28.4759C384.691 31.4217 381.888 36.0425 378.24 42.3192C374.554 48.6728 371.462 53.4284 368.966 56.586C366.47 59.7436 363.418 62.8241 359.75 65.8084C357.773 67.4065 354.509 69.6399 350.016 72.4894ZM345.984 72.4316C340.531 69.8324 335.731 68.5424 331.546 68.5424C329.28 68.5424 327.437 68.8697 326.016 69.5243C324.595 70.179 323.885 71.0261 323.885 72.0465C323.885 73.0285 324.634 73.8371 326.131 74.4917C327.629 75.1271 329.53 75.4544 331.834 75.4544C336.384 75.4352 341.107 74.434 345.984 72.4316Z" fill="#A18313"/>
<path d="M0 32.0956H8.6784V77.1487H0V32.0956Z" fill="#1F369A"/>
<path d="M16.4545 32.0956H30.7777L50.0737 69.7554H50.3041L49.5937 32.0956H58.2721V77.1487H43.8337L24.7873 39.4889H24.4225L24.9217 58.1648L25.1521 77.1487H16.4545V32.0956Z" fill="#1F369A"/>
<path d="M81.1584 31.7298C85.152 31.7298 87.9936 31.8068 89.7216 31.98C92.4864 32.3459 94.5792 33.116 96.0192 34.329C97.5168 35.5612 98.4768 37.0437 98.9184 38.7765C99.3408 40.5093 99.552 42.7042 99.552 45.3805H90.8736V43.5706C90.8736 41.8956 90.5856 40.7211 89.9904 40.0858C89.2992 39.2771 87.4944 38.892 84.5952 38.892H81.0624C77.6448 38.892 75.4176 39.2964 74.4192 40.0858C73.8816 40.4901 73.4976 41.0292 73.2672 41.6838C73.0368 42.3384 72.9216 43.3396 72.9216 44.6488C72.9984 46.1506 73.1328 47.2288 73.3056 47.8834C73.4784 48.5573 73.9392 49.0771 74.6496 49.4622C75.2448 49.7703 75.9552 50.0206 76.8192 50.1746C77.6832 50.3479 78.7008 50.4634 79.872 50.5404C81.0432 50.6367 82.1568 50.6944 83.2128 50.7715C86.784 50.9832 89.7216 51.2913 92.0256 51.6186C94.3488 51.9652 96.1152 52.6005 97.344 53.5247C98.0928 54.1408 98.688 54.8532 99.1104 55.7003C99.5328 56.5475 99.84 57.4139 100.032 58.3381C100.224 59.2622 100.339 60.0516 100.378 60.7255C100.416 61.3994 100.474 62.5353 100.531 64.0949C100.531 66.5978 100.186 68.812 99.4752 70.7566C98.7648 72.6819 97.7472 74.1644 96.384 75.1656C94.2912 76.7251 89.9904 77.5145 83.5008 77.5145H80.256C77.376 77.5145 74.8992 77.3605 72.8256 77.0332C70.752 76.7252 68.9664 75.9358 67.5072 74.6843C66.432 73.7601 65.6448 72.7012 65.1648 71.5075C64.6656 70.3137 64.3584 69.0815 64.2624 67.8108C64.1472 66.5401 64.0896 64.9035 64.0896 62.8626H72.672C72.672 63.3825 72.6336 63.7868 72.5568 64.1334C72.6336 65.5196 72.7488 66.5786 72.9216 67.2909C73.0944 68.0033 73.44 68.6002 73.9392 69.0623C74.5152 69.6014 75.2832 69.9479 76.2432 70.1405C77.2032 70.3137 78.5472 70.4485 80.2944 70.5063C81.1392 70.5063 81.7536 70.5448 82.1568 70.641C84.3456 70.5448 85.9968 70.4293 87.0912 70.2945C88.2048 70.1597 89.1264 69.8709 89.8752 69.4473C91.2 68.6194 91.8528 66.7518 91.8528 63.8061C91.8528 61.7267 91.4304 60.2442 90.5856 59.3393C90.2784 59.0505 89.8752 58.8194 89.4144 58.6461C88.9344 58.4728 88.4544 58.3381 87.9744 58.2803C87.4944 58.2033 86.88 58.1455 86.1504 58.107C85.4016 58.0685 84.576 58.0108 83.6352 57.9723C82.0416 57.8952 80.5248 57.8375 79.1232 57.7605C77.7024 57.7027 76.3584 57.5872 75.072 57.4332C73.7856 57.2791 72.5184 57.0096 71.2704 56.6053C70.0032 56.2009 68.9664 55.6811 68.1216 55.0457C65.76 53.3129 64.512 50.0206 64.3392 45.1879C64.3392 40.1435 65.472 36.6201 67.7568 34.5985C70.0992 32.6732 74.5728 31.7298 81.1584 31.7298Z" fill="#1F369A"/>
<path d="M115.718 77.1487V39.5081H102.605V32.0956H137.568V39.5081H124.339V77.1487H115.718Z" fill="#1F369A"/>
<path d="M141.523 32.0956H150.221V77.1487H141.523V32.0956Z" fill="#1F369A"/>
<path d="M167.386 77.1487V39.5081H154.272V32.0956H189.254V39.5081H176.026V77.1487H167.386Z" fill="#1F369A"/>
<path d="M211.354 70.1212C212.064 70.1212 212.582 70.1597 212.928 70.2367C215.04 70.1597 216.634 70.0249 217.747 69.8324C218.861 69.6399 219.782 69.2163 220.55 68.5424C221.203 68.0033 221.606 67.3679 221.779 66.6556C221.952 65.9432 222.048 64.788 222.048 63.2092V32.0956H230.669V64.3644C230.669 69.1008 229.344 72.5471 226.714 74.6843C225.12 75.9357 223.008 76.7251 220.339 77.0332C217.67 77.3605 214.445 77.5145 210.662 77.5145C207.898 77.5145 205.517 77.3798 203.539 77.1102C201.581 76.8407 199.757 76.2823 198.144 75.3966C196.474 74.4147 195.245 72.9129 194.438 70.9106C193.632 68.9275 193.229 66.6363 193.229 64.0948V32.0956H201.907V64.8265C201.907 65.9047 202.022 66.7133 202.272 67.2909C202.502 67.8493 202.963 68.3499 203.654 68.812C204.499 69.3896 205.498 69.7554 206.63 69.9094C207.744 70.0442 209.318 70.1212 211.354 70.1212Z" fill="#1F369A"/>
<path d="M247.757 77.1487V39.5081H234.643V32.0956H269.626V39.5081H256.397V77.1487H247.757Z" fill="#1F369A"/>
<path d="M291.11 39.1231C288.326 39.1231 286.176 39.3156 284.678 39.7392C283.162 40.1435 282.163 40.9137 281.664 42.0689C281.069 43.3781 280.704 45.3805 280.512 48.0952C280.589 48.4418 280.627 48.9039 280.627 49.4815V60.1672C280.627 63.8638 281.05 66.4053 281.894 67.7915C282.586 68.8312 283.603 69.4858 284.909 69.7361C286.214 70.0057 288.23 70.1597 290.957 70.256C293.587 70.1982 295.584 69.9864 296.928 69.6399C298.291 69.2933 299.328 68.6772 300.077 67.7915C300.518 67.1369 300.864 66.1935 301.152 64.9613C301.44 63.7098 301.574 62.362 301.574 60.9373V48.9809V47.3636C301.574 44.5141 301.075 42.4732 300.096 41.241C299.117 40.182 297.542 39.5274 295.411 39.2579C294.048 39.1616 292.646 39.1231 291.11 39.1231ZM290.995 31.7298C293.338 31.7298 295.526 31.826 297.542 32.0186C299.578 32.2111 301.498 32.6539 303.322 33.347C305.165 34.0402 306.509 35.0606 307.411 36.4276C307.872 36.9474 308.467 38.0834 309.178 39.874C309.888 41.6646 310.234 44.2638 310.234 47.7294V62.2658C310.234 64.9805 309.965 67.0792 309.466 68.5809C308.947 70.0634 308.237 71.4882 307.296 72.8552C306.259 74.28 304.781 75.3389 302.899 76.032C300.998 76.7251 299.059 77.1487 297.062 77.322C295.066 77.476 292.666 77.553 289.862 77.553C286.445 77.553 283.546 77.3028 281.203 76.8022C278.861 76.3016 276.941 75.2426 275.482 73.6446C273.197 71.3534 272.064 67.1369 272.064 60.9758V48.6536C272.064 46.0351 272.237 43.7247 272.582 41.6838C272.909 39.6429 273.6 37.8716 274.656 36.3506C275.635 34.9836 277.018 33.9632 278.822 33.2893C280.627 32.6154 282.49 32.1918 284.41 32.0186C286.33 31.8068 288.518 31.7298 290.995 31.7298Z" fill="#1F369A"/>
<path d="M418.291 39.1231C415.507 39.1231 413.357 39.3156 411.859 39.7392C410.342 40.1435 409.344 40.9137 408.845 42.0689C408.25 43.3781 407.885 45.3805 407.693 48.0952C407.77 48.4418 407.808 48.9039 407.808 49.4815V60.1672C407.808 63.8638 408.23 66.4053 409.075 67.7915C409.766 68.8312 410.784 69.4858 412.09 69.7361C413.395 70.0057 415.411 70.1597 418.138 70.256C420.768 70.1982 422.765 69.9864 424.109 69.6399C425.472 69.2933 426.509 68.6772 427.258 67.7915C427.699 67.1369 428.045 66.1935 428.333 64.9613C428.621 63.7098 428.755 62.362 428.755 60.9373V48.9809V47.3636C428.755 44.5141 428.256 42.4732 427.277 41.241C426.298 40.182 424.723 39.5274 422.592 39.2579C421.229 39.1616 419.827 39.1231 418.291 39.1231ZM418.176 31.7298C420.518 31.7298 422.707 31.826 424.723 32.0186C426.758 32.2111 428.678 32.6539 430.502 33.347C432.346 34.0402 433.69 35.0606 434.592 36.4276C435.053 36.9474 435.648 38.0834 436.358 39.874C437.069 41.6646 437.414 44.2638 437.414 47.7294V62.2658C437.414 64.9805 437.146 67.0792 436.646 68.5809C436.128 70.0634 435.418 71.4882 434.477 72.8552C433.44 74.28 431.962 75.3389 430.08 76.032C428.179 76.7251 426.24 77.1487 424.243 77.322C422.246 77.476 419.846 77.553 417.043 77.553C413.626 77.553 410.726 77.3028 408.384 76.8022C406.042 76.3016 404.122 75.2426 402.662 73.6446C400.378 71.3534 399.245 67.1369 399.245 60.9758V48.6536C399.245 46.0351 399.418 43.7247 399.763 41.6838C400.09 39.6429 400.781 37.8716 401.837 36.3506C402.816 34.9836 404.198 33.9632 406.003 33.2893C407.808 32.6154 409.67 32.1918 411.59 32.0186C413.51 31.8068 415.699 31.7298 418.176 31.7298Z" fill="#1F369A"/>
<path d="M464.198 39.5082H452.045V54.8724H464.448C465.946 54.8724 467.098 54.7569 467.904 54.5066C468.71 54.2756 469.44 53.8135 470.074 53.1396C470.918 52.0614 471.341 49.9821 471.341 46.9015C471.341 44.0712 470.995 42.1266 470.304 41.1254C469.747 40.4516 468.979 40.0087 468.019 39.797C467.059 39.6044 465.773 39.5082 464.198 39.5082ZM465.485 32.0956C471.302 32.0956 475.219 33.2315 477.293 35.5034C479.098 37.5443 480 40.8559 480 45.4767C480 50.4826 479.347 53.775 478.022 55.3345C476.851 56.7785 474.854 57.7605 472.051 58.2803V58.4536C474.682 58.7039 476.678 59.6088 478.022 61.1491C479.098 62.8819 479.635 65.4426 479.635 68.7927V77.1295H470.976V70.333C470.976 68.7734 470.899 67.4642 470.746 66.4438C470.592 65.4041 470.208 64.5569 469.594 63.8638C468.979 63.1707 468.25 62.7279 467.424 62.5353C466.579 62.3428 465.485 62.2273 464.083 62.2273H463.2H452.045V77.1295H443.424V32.0763H465.485V32.0956Z" fill="#1F369A"/>
<path d="M6.70077 134.351V145.614H0.019165V110.669H15.264C17.9904 110.669 20.3328 110.919 22.2912 111.439C24.2496 111.959 25.6704 113.095 26.592 114.866C27.4368 116.811 27.8592 119.352 27.8592 122.491C27.8592 126.803 27.1296 129.826 25.6704 131.578C24.96 132.464 23.7696 133.138 22.1184 133.619C20.448 134.101 18.72 134.332 16.9152 134.332H6.70077V134.351ZM6.70077 128.613H15.168C17.6448 128.613 19.2 128.305 19.8528 127.689C20.4672 127.189 20.8512 126.63 20.9664 126.033C21.0816 125.436 21.1776 124.358 21.2544 122.799C21.2544 120.585 21.0048 119.044 20.5248 118.139C20.1408 117.504 19.5648 117.061 18.7776 116.811C17.9904 116.561 16.8576 116.426 15.36 116.426H6.71997V128.613H6.70077Z" fill="#1F369A"/>
<path d="M31.8912 145.614V110.669H55.8144V116.407H38.5728V125.167H54.9312V130.616H38.5728V139.877H55.9104V145.614H31.8912Z" fill="#1F369A"/>
<path d="M72.864 110.38C75.9552 110.38 78.1632 110.438 79.5072 110.573C81.6576 110.862 83.2704 111.458 84.384 112.383C85.536 113.345 86.3041 114.481 86.6304 115.829C86.9569 117.177 87.1296 118.871 87.1296 120.95H80.3904V119.564C80.3904 118.255 80.16 117.35 79.6992 116.869C79.1616 116.253 77.76 115.944 75.5136 115.944H72.768C70.1184 115.944 68.3904 116.253 67.6224 116.869C67.2 117.177 66.912 117.6 66.72 118.12C66.5472 118.64 66.4512 119.41 66.4512 120.411C66.5088 121.567 66.6048 122.414 66.7584 122.934C66.8928 123.453 67.2384 123.858 67.7952 124.146C68.256 124.378 68.8128 124.57 69.4848 124.705C70.1568 124.84 70.944 124.936 71.8464 124.994C72.7488 125.071 73.6128 125.109 74.4384 125.167C77.2032 125.34 79.488 125.571 81.2736 125.822C83.0784 126.091 84.4416 126.592 85.4016 127.304C85.9776 127.785 86.4384 128.344 86.7648 128.998C87.0912 129.653 87.3408 130.327 87.4752 131.039C87.6288 131.752 87.7056 132.368 87.744 132.888C87.7824 133.407 87.8208 134.293 87.8592 135.506C87.8592 137.451 87.5904 139.164 87.0336 140.666C86.4768 142.168 85.6896 143.304 84.6336 144.074C83.0016 145.287 79.68 145.884 74.6496 145.884H72.1344C69.9072 145.884 67.9872 145.768 66.3744 145.518C64.7616 145.268 63.3792 144.671 62.2464 143.689C61.4016 142.976 60.8064 142.148 60.4224 141.224C60.0384 140.3 59.808 139.337 59.712 138.356C59.6352 137.374 59.5776 136.103 59.5776 134.505H66.24C66.24 134.909 66.2016 135.217 66.144 135.487C66.2016 136.565 66.2976 137.374 66.432 137.932C66.5664 138.49 66.8352 138.933 67.2192 139.299C67.6608 139.703 68.256 139.992 69.0048 140.127C69.7536 140.262 70.7904 140.358 72.1536 140.416C72.8064 140.416 73.2864 140.454 73.5936 140.512C75.2832 140.435 76.5696 140.358 77.4336 140.242C78.2976 140.127 79.008 139.915 79.584 139.588C80.6208 138.952 81.12 137.489 81.12 135.217C81.12 133.6 80.7936 132.445 80.1408 131.752C79.8912 131.521 79.584 131.347 79.2192 131.212C78.8544 131.078 78.4704 130.981 78.1056 130.924C77.7408 130.866 77.2608 130.827 76.6848 130.789C76.1088 130.75 75.456 130.712 74.7456 130.673C73.4976 130.616 72.3456 130.558 71.2512 130.519C70.1568 130.481 69.1008 130.385 68.1216 130.269C67.1232 130.154 66.144 129.942 65.1648 129.634C64.1856 129.326 63.3792 128.921 62.7264 128.421C60.9024 127.073 59.9232 124.532 59.808 120.777C59.808 116.869 60.6912 114.135 62.4576 112.575C64.2816 111.112 67.7568 110.38 72.864 110.38Z" fill="#1F369A"/>
<path d="M105.542 133.215L108.25 129.21L115.68 134.332C115.68 133.985 115.718 133.215 115.776 132.002C115.834 130.808 115.872 129.672 115.872 128.594V124.859C115.872 122.895 115.814 121.412 115.699 120.431C115.584 119.429 115.315 118.621 114.893 118.024C114.317 117.292 113.414 116.792 112.166 116.522C110.918 116.253 109.171 116.118 106.886 116.118C104.64 116.118 102.95 116.272 101.818 116.618C100.685 116.946 99.8209 117.581 99.2641 118.505C98.7073 119.449 98.4385 121.278 98.4385 123.954V131.212C98.4385 133.33 98.5153 134.948 98.6881 136.122C98.8609 137.277 99.2641 138.182 99.9361 138.818C100.55 139.414 101.338 139.8 102.298 139.934C103.258 140.088 104.602 140.165 106.349 140.165C107.366 140.165 108.058 140.204 108.422 140.262C110.054 140.108 111.226 139.973 111.936 139.838C112.646 139.703 113.357 139.357 114.048 138.818L105.542 133.215ZM122.688 144.863L119.558 142.63C118.656 143.573 117.581 144.286 116.352 144.748C115.123 145.229 113.779 145.537 112.32 145.672C110.861 145.826 109.114 145.884 107.059 145.884C105.101 145.884 103.469 145.845 102.163 145.749C100.858 145.672 99.5713 145.422 98.2849 145.017C97.0177 144.613 95.9041 143.997 94.9825 143.13C93.9649 142.206 93.2161 141.013 92.7553 139.549C92.2753 138.086 91.9873 136.526 91.8913 134.851C91.7761 133.176 91.7377 130.924 91.7377 128.132V125.051C91.7761 123.03 91.8529 121.432 91.9489 120.315C92.0449 119.198 92.2753 118.062 92.6209 116.946C92.9857 115.829 93.5233 114.809 94.2337 113.923C95.0785 112.902 96.2113 112.132 97.5937 111.612C98.9761 111.093 100.454 110.746 102.01 110.592C103.565 110.438 105.312 110.361 107.232 110.361C109.152 110.361 110.899 110.438 112.474 110.631C114.029 110.804 115.411 111.112 116.621 111.593C117.83 112.055 118.81 112.691 119.539 113.499C120.422 114.404 121.094 115.405 121.536 116.503C121.978 117.581 122.266 118.775 122.381 120.026C122.496 121.297 122.554 122.933 122.554 124.955V131.193C122.554 134.967 122.342 137.47 121.901 138.702L125.242 140.936L122.688 144.863Z" fill="#1F369A"/>
<path d="M142.022 140.165C142.579 140.165 142.982 140.204 143.232 140.262C144.864 140.204 146.112 140.108 146.957 139.934C147.821 139.78 148.531 139.453 149.126 138.933C149.626 138.51 149.952 138.009 150.086 137.47C150.221 136.912 150.278 136.026 150.278 134.794V110.669H156.96V135.699C156.96 139.376 155.942 142.033 153.888 143.708C152.659 144.671 151.008 145.287 148.954 145.537C146.88 145.787 144.384 145.903 141.446 145.903C139.296 145.903 137.453 145.807 135.917 145.595C134.4 145.402 132.998 144.959 131.731 144.266C130.445 143.496 129.485 142.341 128.851 140.781C128.218 139.241 127.91 137.47 127.91 135.506V110.669H134.65V136.045C134.65 136.892 134.746 137.508 134.938 137.951C135.13 138.394 135.475 138.779 136.013 139.126C136.666 139.569 137.453 139.857 138.336 139.973C139.219 140.108 140.448 140.165 142.022 140.165Z" fill="#1F369A"/>
<path d="M162.97 110.669H169.709V145.614H162.97V110.669Z" fill="#1F369A"/>
<path d="M187.546 110.38C190.637 110.38 192.845 110.438 194.189 110.573C196.339 110.862 197.952 111.458 199.066 112.383C200.218 113.345 200.986 114.481 201.312 115.829C201.638 117.177 201.811 118.871 201.811 120.95H195.072V119.564C195.072 118.255 194.842 117.35 194.381 116.869C193.843 116.253 192.442 115.944 190.195 115.944H187.45C184.8 115.944 183.072 116.253 182.304 116.869C181.882 117.177 181.594 117.6 181.402 118.12C181.229 118.64 181.133 119.41 181.133 120.411C181.19 121.567 181.286 122.414 181.44 122.934C181.574 123.453 181.92 123.858 182.477 124.146C182.938 124.378 183.494 124.57 184.166 124.705C184.838 124.84 185.626 124.936 186.528 124.994C187.43 125.071 188.294 125.109 189.12 125.167C191.885 125.34 194.17 125.571 195.955 125.822C197.76 126.091 199.123 126.592 200.083 127.304C200.659 127.785 201.12 128.344 201.446 128.998C201.773 129.653 202.022 130.327 202.176 131.039C202.33 131.752 202.406 132.368 202.445 132.888C202.483 133.407 202.522 134.293 202.56 135.506C202.56 137.451 202.291 139.164 201.734 140.666C201.178 142.168 200.39 143.304 199.334 144.074C197.702 145.287 194.381 145.884 189.35 145.884H186.835C184.608 145.884 182.688 145.768 181.075 145.518C179.462 145.268 178.08 144.671 176.947 143.689C176.102 142.976 175.507 142.148 175.123 141.224C174.739 140.3 174.509 139.337 174.413 138.356C174.336 137.374 174.278 136.103 174.278 134.505H180.941C180.941 134.909 180.902 135.217 180.845 135.487C180.902 136.565 180.998 137.374 181.133 137.932C181.267 138.49 181.536 138.933 181.92 139.299C182.362 139.703 182.957 139.992 183.706 140.127C184.454 140.262 185.491 140.358 186.854 140.416C187.507 140.416 187.987 140.454 188.294 140.512C189.984 140.435 191.27 140.358 192.134 140.242C192.998 140.127 193.709 139.915 194.285 139.588C195.322 138.952 195.821 137.489 195.821 135.217C195.821 133.6 195.494 132.445 194.842 131.752C194.592 131.521 194.285 131.347 193.92 131.212C193.555 131.078 193.171 130.981 192.806 130.924C192.442 130.866 191.962 130.827 191.386 130.789C190.81 130.75 190.157 130.712 189.446 130.673C188.198 130.616 187.046 130.558 185.952 130.519C184.858 130.481 183.802 130.385 182.822 130.269C181.824 130.154 180.845 129.942 179.866 129.634C178.886 129.326 178.08 128.921 177.427 128.421C175.603 127.073 174.624 124.532 174.509 120.777C174.509 116.869 175.392 114.135 177.158 112.575C178.963 111.112 182.438 110.38 187.546 110.38Z" fill="#1F369A"/>
<path d="M214.522 133.966H226.56L220.57 115.752H220.531L214.522 133.966ZM215.501 110.669H225.293L237.178 145.614H230.342L228.115 139.049H213.005L210.778 145.614H203.866L211.853 121.393L215.501 110.669Z" fill="#1F369A"/>
<path d="M255.917 145.614V110.669H279.84V116.407H262.598V125.167H278.957V130.616H262.598V139.877H279.936V145.614H255.917Z" fill="#1F369A"/>
<path d="M301.018 145.614V110.669H324.941V116.407H307.699V125.167H324.058V130.616H307.699V139.877H325.018V145.614H301.018Z" fill="#1F369A"/>
<path d="M330.182 110.669H341.28L356.237 139.877H356.429L355.872 110.669H362.592V145.614H351.398L336.634 116.407H336.346L336.73 130.885L336.902 145.614H330.182V110.669Z" fill="#1F369A"/>
<path d="M380.352 110.38C383.443 110.38 385.651 110.438 386.995 110.573C389.146 110.862 390.758 111.458 391.872 112.383C393.024 113.345 393.792 114.481 394.118 115.829C394.445 117.177 394.618 118.871 394.618 120.95H387.878V119.564C387.878 118.255 387.648 117.35 387.187 116.869C386.65 116.253 385.248 115.944 383.002 115.944H380.256C377.606 115.944 375.878 116.253 375.11 116.869C374.688 117.177 374.4 117.6 374.208 118.12C374.035 118.64 373.939 119.41 373.939 120.411C373.997 121.567 374.093 122.414 374.246 122.934C374.381 123.453 374.726 123.858 375.283 124.146C375.744 124.378 376.301 124.57 376.973 124.705C377.645 124.84 378.432 124.936 379.334 124.994C380.237 125.071 381.101 125.109 381.926 125.167C384.691 125.34 386.976 125.571 388.762 125.822C390.566 126.091 391.93 126.592 392.89 127.304C393.466 127.785 393.926 128.344 394.253 128.998C394.579 129.653 394.829 130.327 394.963 131.039C395.117 131.752 395.194 132.368 395.232 132.888C395.27 133.407 395.309 134.293 395.347 135.506C395.347 137.451 395.078 139.164 394.522 140.666C393.965 142.168 393.178 143.304 392.122 144.074C390.49 145.287 387.168 145.884 382.138 145.884H379.622C377.395 145.884 375.475 145.768 373.862 145.518C372.25 145.268 370.867 144.671 369.734 143.689C368.89 142.976 368.294 142.148 367.91 141.224C367.526 140.3 367.296 139.337 367.2 138.356C367.123 137.374 367.066 136.103 367.066 134.505H373.728C373.728 134.909 373.69 135.217 373.632 135.487C373.69 136.565 373.786 137.374 373.92 137.932C374.054 138.49 374.323 138.933 374.707 139.299C375.149 139.703 375.744 139.992 376.493 140.127C377.242 140.262 378.278 140.358 379.642 140.416C380.294 140.416 380.774 140.454 381.082 140.512C382.771 140.435 384.058 140.358 384.922 140.242C385.786 140.127 386.496 139.915 387.072 139.588C388.109 138.952 388.608 137.489 388.608 135.217C388.608 133.6 388.282 132.445 387.629 131.752C387.379 131.521 387.072 131.347 386.707 131.212C386.342 131.078 385.958 130.981 385.594 130.924C385.229 130.866 384.749 130.827 384.173 130.789C383.597 130.75 382.944 130.712 382.234 130.673C380.986 130.616 379.834 130.558 378.739 130.519C377.645 130.481 376.589 130.385 375.61 130.269C374.611 130.154 373.632 129.942 372.653 129.634C371.674 129.326 370.867 128.921 370.214 128.421C368.39 127.073 367.411 124.532 367.296 120.777C367.296 116.869 368.179 114.135 369.946 112.575C371.77 111.112 375.245 110.38 380.352 110.38Z" fill="#1F369A"/>
<path d="M399.859 110.669H406.598V145.614H399.859V110.669Z" fill="#1F369A"/>
<path d="M412.627 110.669H423.725L438.682 139.877H438.874L438.317 110.669H445.037V145.614H433.843L419.078 116.407H418.81L419.174 130.885L419.366 145.614H412.627V110.669Z" fill="#1F369A"/>
<path d="M464.602 116.118C462.451 116.118 460.781 116.272 459.61 116.599C458.438 116.907 457.651 117.523 457.267 118.409C456.806 119.41 456.518 120.97 456.384 123.068C456.442 123.338 456.48 123.704 456.48 124.146V132.425C456.48 135.294 456.806 137.258 457.459 138.336C457.997 139.145 458.784 139.665 459.802 139.857C460.819 140.05 462.374 140.185 464.486 140.262C466.522 140.223 468.077 140.069 469.114 139.78C470.17 139.511 470.976 139.029 471.552 138.336C471.898 137.836 472.166 137.104 472.378 136.141C472.589 135.179 472.704 134.139 472.704 133.022V123.761V122.51C472.704 120.296 472.32 118.717 471.552 117.774C470.784 116.965 469.574 116.445 467.923 116.233C466.886 116.156 465.773 116.118 464.602 116.118ZM464.506 110.38C466.33 110.38 468.019 110.457 469.594 110.611C471.168 110.765 472.666 111.093 474.067 111.632C475.488 112.171 476.544 112.96 477.235 114.019C477.6 114.423 478.061 115.309 478.598 116.695C479.155 118.082 479.424 120.103 479.424 122.779V134.043C479.424 136.141 479.232 137.778 478.829 138.933C478.425 140.088 477.869 141.186 477.139 142.245C476.333 143.361 475.2 144.17 473.741 144.709C472.262 145.248 470.765 145.576 469.21 145.71C467.654 145.826 465.792 145.884 463.622 145.884C460.973 145.884 458.726 145.691 456.902 145.306C455.078 144.921 453.6 144.093 452.467 142.861C450.701 141.09 449.818 137.816 449.818 133.042V123.492C449.818 121.47 449.952 119.68 450.221 118.082C450.47 116.503 451.008 115.117 451.814 113.942C452.582 112.883 453.658 112.094 455.059 111.574C456.461 111.054 457.901 110.727 459.398 110.592C460.877 110.457 462.586 110.38 464.506 110.38Z" fill="#1F369A"/>
</svg>
